<mxfile host="app.diagrams.net" modified="2023-12-18T14:43:21.377Z" agent="Mozilla/5.0 (Windows NT 10.0; Win64; x64) AppleWebKit/537.36 (KHTML, like Gecko) Chrome/120.0.0.0 Safari/537.36" etag="3EtWoogvgAR7GqM7cXFc" version="22.1.11" type="github">
  <diagram id="C5RBs43oDa-KdzZeNtuy" name="Page-1">
    <mxGraphModel dx="683" dy="381" grid="1" gridSize="10" guides="1" tooltips="1" connect="1" arrows="1" fold="1" page="1" pageScale="1" pageWidth="827" pageHeight="1169" math="0" shadow="0">
      <root>
        <mxCell id="WIyWlLk6GJQsqaUBKTNV-0" />
        <mxCell id="WIyWlLk6GJQsqaUBKTNV-1" parent="WIyWlLk6GJQsqaUBKTNV-0" />
        <mxCell id="VeSu8DNw0vKjj3wHpNu2-2" style="edgeStyle=orthogonalEdgeStyle;rounded=0;orthogonalLoop=1;jettySize=auto;html=1;strokeWidth=2;" edge="1" parent="WIyWlLk6GJQsqaUBKTNV-1" source="VeSu8DNw0vKjj3wHpNu2-0" target="VeSu8DNw0vKjj3wHpNu2-1">
          <mxGeometry relative="1" as="geometry" />
        </mxCell>
        <mxCell id="VeSu8DNw0vKjj3wHpNu2-0" value="" style="ellipse;whiteSpace=wrap;html=1;aspect=fixed;strokeWidth=2;" vertex="1" parent="WIyWlLk6GJQsqaUBKTNV-1">
          <mxGeometry x="200" y="70" width="80" height="80" as="geometry" />
        </mxCell>
        <mxCell id="VeSu8DNw0vKjj3wHpNu2-5" style="edgeStyle=orthogonalEdgeStyle;rounded=0;orthogonalLoop=1;jettySize=auto;html=1;entryX=0.5;entryY=0;entryDx=0;entryDy=0;strokeWidth=2;" edge="1" parent="WIyWlLk6GJQsqaUBKTNV-1" source="VeSu8DNw0vKjj3wHpNu2-1" target="VeSu8DNw0vKjj3wHpNu2-4">
          <mxGeometry relative="1" as="geometry" />
        </mxCell>
        <mxCell id="VeSu8DNw0vKjj3wHpNu2-1" value="&lt;font style=&quot;font-size: 24px;&quot;&gt;x,y&lt;/font&gt;" style="shape=card;whiteSpace=wrap;html=1;strokeWidth=2;" vertex="1" parent="WIyWlLk6GJQsqaUBKTNV-1">
          <mxGeometry x="190" y="180" width="100" height="70" as="geometry" />
        </mxCell>
        <mxCell id="VeSu8DNw0vKjj3wHpNu2-8" style="edgeStyle=orthogonalEdgeStyle;rounded=0;orthogonalLoop=1;jettySize=auto;html=1;entryX=0.5;entryY=0;entryDx=0;entryDy=0;strokeWidth=2;" edge="1" parent="WIyWlLk6GJQsqaUBKTNV-1" source="VeSu8DNw0vKjj3wHpNu2-4" target="VeSu8DNw0vKjj3wHpNu2-6">
          <mxGeometry relative="1" as="geometry" />
        </mxCell>
        <mxCell id="VeSu8DNw0vKjj3wHpNu2-4" value="&lt;font style=&quot;font-size: 24px;&quot;&gt;symbols = 0&lt;/font&gt;" style="rounded=0;whiteSpace=wrap;html=1;strokeWidth=2;" vertex="1" parent="WIyWlLk6GJQsqaUBKTNV-1">
          <mxGeometry x="170" y="280" width="140" height="50" as="geometry" />
        </mxCell>
        <mxCell id="VeSu8DNw0vKjj3wHpNu2-10" value="" style="edgeStyle=orthogonalEdgeStyle;rounded=0;orthogonalLoop=1;jettySize=auto;html=1;strokeWidth=2;" edge="1" parent="WIyWlLk6GJQsqaUBKTNV-1" source="VeSu8DNw0vKjj3wHpNu2-6" target="VeSu8DNw0vKjj3wHpNu2-9">
          <mxGeometry relative="1" as="geometry" />
        </mxCell>
        <mxCell id="VeSu8DNw0vKjj3wHpNu2-16" style="edgeStyle=orthogonalEdgeStyle;rounded=0;orthogonalLoop=1;jettySize=auto;html=1;entryX=0.5;entryY=0;entryDx=0;entryDy=0;strokeWidth=2;" edge="1" parent="WIyWlLk6GJQsqaUBKTNV-1" source="VeSu8DNw0vKjj3wHpNu2-6" target="VeSu8DNw0vKjj3wHpNu2-17">
          <mxGeometry relative="1" as="geometry">
            <mxPoint x="510" y="670" as="targetPoint" />
          </mxGeometry>
        </mxCell>
        <mxCell id="VeSu8DNw0vKjj3wHpNu2-6" value="&lt;font style=&quot;font-size: 24px;&quot;&gt;for i in range(min(len(x), len(y)))&lt;/font&gt;" style="shape=hexagon;perimeter=hexagonPerimeter2;whiteSpace=wrap;html=1;fixedSize=1;align=center;strokeWidth=2;" vertex="1" parent="WIyWlLk6GJQsqaUBKTNV-1">
          <mxGeometry x="55" y="358" width="370" height="60" as="geometry" />
        </mxCell>
        <mxCell id="VeSu8DNw0vKjj3wHpNu2-12" style="edgeStyle=orthogonalEdgeStyle;rounded=0;orthogonalLoop=1;jettySize=auto;html=1;entryX=0.5;entryY=0;entryDx=0;entryDy=0;strokeWidth=2;" edge="1" parent="WIyWlLk6GJQsqaUBKTNV-1" source="VeSu8DNw0vKjj3wHpNu2-9" target="VeSu8DNw0vKjj3wHpNu2-11">
          <mxGeometry relative="1" as="geometry" />
        </mxCell>
        <mxCell id="VeSu8DNw0vKjj3wHpNu2-15" style="edgeStyle=orthogonalEdgeStyle;rounded=0;orthogonalLoop=1;jettySize=auto;html=1;entryX=0;entryY=0.5;entryDx=0;entryDy=0;strokeWidth=2;" edge="1" parent="WIyWlLk6GJQsqaUBKTNV-1" source="VeSu8DNw0vKjj3wHpNu2-9" target="VeSu8DNw0vKjj3wHpNu2-6">
          <mxGeometry relative="1" as="geometry">
            <Array as="points">
              <mxPoint x="240" y="610" />
              <mxPoint x="35" y="610" />
              <mxPoint x="35" y="388" />
            </Array>
          </mxGeometry>
        </mxCell>
        <mxCell id="VeSu8DNw0vKjj3wHpNu2-9" value="&lt;font style=&quot;font-size: 24px;&quot;&gt;x[i] != y[i]&lt;/font&gt;" style="rhombus;whiteSpace=wrap;html=1;strokeWidth=2;" vertex="1" parent="WIyWlLk6GJQsqaUBKTNV-1">
          <mxGeometry x="175" y="457" width="130" height="82" as="geometry" />
        </mxCell>
        <mxCell id="VeSu8DNw0vKjj3wHpNu2-13" style="edgeStyle=orthogonalEdgeStyle;rounded=0;orthogonalLoop=1;jettySize=auto;html=1;entryX=0;entryY=0.5;entryDx=0;entryDy=0;strokeWidth=2;" edge="1" parent="WIyWlLk6GJQsqaUBKTNV-1" source="VeSu8DNw0vKjj3wHpNu2-11" target="VeSu8DNw0vKjj3wHpNu2-6">
          <mxGeometry relative="1" as="geometry">
            <Array as="points">
              <mxPoint x="400" y="610" />
              <mxPoint x="35" y="610" />
              <mxPoint x="35" y="388" />
            </Array>
          </mxGeometry>
        </mxCell>
        <mxCell id="VeSu8DNw0vKjj3wHpNu2-11" value="&lt;font style=&quot;font-size: 24px;&quot;&gt;symbols+=1&lt;/font&gt;" style="rounded=0;whiteSpace=wrap;html=1;strokeWidth=2;" vertex="1" parent="WIyWlLk6GJQsqaUBKTNV-1">
          <mxGeometry x="320" y="540" width="160" height="60" as="geometry" />
        </mxCell>
        <mxCell id="VeSu8DNw0vKjj3wHpNu2-19" style="edgeStyle=orthogonalEdgeStyle;rounded=0;orthogonalLoop=1;jettySize=auto;html=1;strokeWidth=2;" edge="1" parent="WIyWlLk6GJQsqaUBKTNV-1" source="VeSu8DNw0vKjj3wHpNu2-17" target="VeSu8DNw0vKjj3wHpNu2-18">
          <mxGeometry relative="1" as="geometry" />
        </mxCell>
        <mxCell id="VeSu8DNw0vKjj3wHpNu2-17" value="&lt;font style=&quot;font-size: 24px;&quot;&gt;symbols +=&amp;nbsp; abs(len(x) - len(y))&lt;/font&gt;" style="rounded=0;whiteSpace=wrap;html=1;strokeWidth=2;" vertex="1" parent="WIyWlLk6GJQsqaUBKTNV-1">
          <mxGeometry x="450" y="418" width="360" height="42" as="geometry" />
        </mxCell>
        <mxCell id="VeSu8DNw0vKjj3wHpNu2-21" value="" style="edgeStyle=orthogonalEdgeStyle;rounded=0;orthogonalLoop=1;jettySize=auto;html=1;strokeWidth=2;exitX=0.479;exitY=0.84;exitDx=0;exitDy=0;exitPerimeter=0;" edge="1" parent="WIyWlLk6GJQsqaUBKTNV-1" source="VeSu8DNw0vKjj3wHpNu2-18" target="VeSu8DNw0vKjj3wHpNu2-20">
          <mxGeometry relative="1" as="geometry" />
        </mxCell>
        <mxCell id="VeSu8DNw0vKjj3wHpNu2-18" value="&lt;font style=&quot;font-size: 24px;&quot;&gt;symbols&lt;/font&gt;" style="shape=document;whiteSpace=wrap;html=1;boundedLbl=1;strokeWidth=2;" vertex="1" parent="WIyWlLk6GJQsqaUBKTNV-1">
          <mxGeometry x="570" y="490" width="120" height="60" as="geometry" />
        </mxCell>
        <mxCell id="VeSu8DNw0vKjj3wHpNu2-20" value="" style="ellipse;whiteSpace=wrap;html=1;strokeWidth=2;" vertex="1" parent="WIyWlLk6GJQsqaUBKTNV-1">
          <mxGeometry x="600" y="585" width="55" height="55" as="geometry" />
        </mxCell>
        <mxCell id="VeSu8DNw0vKjj3wHpNu2-22" value="" style="endArrow=none;html=1;rounded=0;strokeWidth=2;entryX=1;entryY=0;entryDx=0;entryDy=0;exitX=0;exitY=1;exitDx=0;exitDy=0;" edge="1" parent="WIyWlLk6GJQsqaUBKTNV-1" source="VeSu8DNw0vKjj3wHpNu2-20" target="VeSu8DNw0vKjj3wHpNu2-20">
          <mxGeometry width="50" height="50" relative="1" as="geometry">
            <mxPoint x="520" y="640" as="sourcePoint" />
            <mxPoint x="570" y="590" as="targetPoint" />
          </mxGeometry>
        </mxCell>
        <mxCell id="VeSu8DNw0vKjj3wHpNu2-23" value="" style="endArrow=none;html=1;rounded=0;entryX=0;entryY=0;entryDx=0;entryDy=0;exitX=1;exitY=1;exitDx=0;exitDy=0;strokeWidth=2;" edge="1" parent="WIyWlLk6GJQsqaUBKTNV-1" source="VeSu8DNw0vKjj3wHpNu2-20" target="VeSu8DNw0vKjj3wHpNu2-20">
          <mxGeometry width="50" height="50" relative="1" as="geometry">
            <mxPoint x="490" y="650" as="sourcePoint" />
            <mxPoint x="540" y="600" as="targetPoint" />
          </mxGeometry>
        </mxCell>
      </root>
    </mxGraphModel>
  </diagram>
</mxfile>
